<svg width="16" height="16" viewBox="0 0 16 16" fill="none" xmlns="http://www.w3.org/2000/svg">
<path d="M8 14.9687C6.13049 14.9687 4.37299 14.2442 3.05099 12.9287C1.72848 11.6122 1 9.86224 1 7.99975C1 6.13774 1.7285 4.38725 3.0505 3.07124C4.3725 1.75575 6.13001 1.03125 7.99952 1.03125C9.86902 1.03125 11.6265 1.75575 12.948 3.07124C14.271 4.38725 14.999 6.13774 14.999 7.99924C14.9995 9.86173 14.271 11.6122 12.948 12.9282C11.627 14.2437 9.86951 14.9687 8 14.9687ZM8 2.03071C6.39651 2.03071 4.8895 2.6517 3.75651 3.77972C2.624 4.90672 2 6.40572 2 7.99972C2 9.59373 2.62349 11.0927 3.756 12.2192C4.88899 13.3472 6.396 13.9682 7.99949 13.9682C9.6025 13.9682 11.11 13.3472 12.243 12.2192C13.3755 11.0917 13.9995 9.59322 13.999 7.99921C13.999 6.4052 13.3755 4.90672 12.243 3.78021C11.1105 2.65221 9.60301 2.03071 8 2.03071Z" fill="#8A8A8A"/>
<path d="M11.5 7.50001H8.50001V4.50001C8.50001 4.224 8.27601 4 8 4C7.72399 4 7.49999 4.224 7.49999 4.50001V7.50001H4.50001C4.224 7.50001 4 7.72402 4 8.00003C4 8.27604 4.224 8.50004 4.50001 8.50004H7.50001V11.5C7.50001 11.7765 7.72402 12.0001 8.00003 12.0001C8.27604 12.0001 8.50004 11.7766 8.50004 11.5V8.50001H11.5C11.7765 8.50001 12.0001 8.27601 12.0001 8C12.0001 7.72399 11.7765 7.50001 11.5 7.50001Z" fill="#8A8A8A"/>
</svg>
