<svg width="16" height="16" viewBox="0 0 16 16" fill="none" xmlns="http://www.w3.org/2000/svg">
<rect opacity="0.01" width="16" height="16" fill="black"/>
<path opacity="0.45" fill-rule="evenodd" clip-rule="evenodd" d="M5.625 2.875H5.5C5.56875 2.875 5.625 2.81875 5.625 2.75V2.875ZM10.375 2.875V4H5.625V2.875H10.375ZM10.375 2.875V2.75C10.375 2.81875 10.4312 2.875 10.5 2.875H10.375ZM13.5 4L11.5 4V2.75C11.5 2.19844 11.0516 1.75 10.5 1.75H5.5C4.94844 1.75 4.5 2.19844 4.5 2.75V4L2.5 4C2.22344 4 2 4.22344 2 4.5V5C2 5.06875 2.05625 5.125 2.125 5.125H3.06875L3.45469 13.2969C3.47969 13.8297 3.92031 14.25 4.45312 14.25H11.5469C12.0812 14.25 12.5203 13.8312 12.5453 13.2969L12.9312 5.125H13.875C13.9437 5.125 14 5.06875 14 5V4.5C14 4.22344 13.7766 4 13.5 4ZM4.57455 13.125H11.4277L11.8058 5.125H4.19643L4.57455 13.125Z" fill="black"/>
</svg>
