<svg width="42" height="42" viewBox="0 0 42 42" fill="none" xmlns="http://www.w3.org/2000/svg">
<path d="M25.4975 3.9375C25.8456 3.9375 26.1794 4.07578 26.4256 4.32192C26.6717 4.56806 26.81 4.9019 26.81 5.25C26.81 5.5981 26.6717 5.93194 26.4256 6.17808C26.1794 6.42422 25.8456 6.5625 25.4975 6.5625H10.5648C9.50329 6.5625 8.4853 6.98416 7.73473 7.73473C6.98416 8.4853 6.5625 9.50329 6.5625 10.5648V31.4352C6.5625 31.9608 6.66602 32.4813 6.86715 32.9668C7.06828 33.4524 7.36309 33.8936 7.73473 34.2653C8.10637 34.6369 8.54758 34.9317 9.03315 35.1328C9.51873 35.334 10.0392 35.4375 10.5648 35.4375H31.3705C32.4289 35.4375 33.4443 35.0182 34.1943 34.2715C34.9444 33.5247 35.3681 32.5112 35.3727 31.4528L35.4375 16.8131C35.439 16.465 35.5787 16.1318 35.8259 15.8867C36.0732 15.6416 36.4076 15.5048 36.7557 15.5063C37.1038 15.5078 37.437 15.6475 37.6821 15.8948C37.9272 16.142 38.064 16.4764 38.0625 16.8245L37.9977 31.4641C37.9901 33.2168 37.2885 34.895 36.0465 36.1316C34.8045 37.3683 33.1232 38.0625 31.3705 38.0625H10.5648C8.80709 38.0625 7.12143 37.3643 5.87858 36.1214C4.63573 34.8786 3.9375 33.1929 3.9375 31.4352V10.5648C3.9375 8.80709 4.63573 7.12143 5.87858 5.87858C7.12143 4.63573 8.80709 3.9375 10.5648 3.9375H25.4975Z" fill="#93D500"/>
<path d="M30.8952 4.65756L18.6845 16.7999C18.4392 17.0438 18.2445 17.3338 18.1116 17.6532C17.9787 17.9726 17.9102 18.3151 17.9102 18.6611V20.8696C17.91 21.5907 18.1923 22.2832 18.6965 22.7987C19.2007 23.3142 19.8868 23.6118 20.6078 23.6276L22.699 23.6731C23.0444 23.6807 23.3879 23.6201 23.7099 23.4947C24.0318 23.3694 24.3258 23.1817 24.575 22.9424L37.0298 10.9899C37.8759 10.1776 38.3651 9.06282 38.39 7.89019C38.415 6.71756 37.9736 5.58295 37.1628 4.73543L37.1033 4.67418C36.2824 3.84889 35.1673 3.38343 34.0033 3.38014C32.8392 3.37686 31.7216 3.83603 30.896 4.65668L30.8952 4.65756ZM35.2649 6.55018C35.595 6.89523 35.7746 7.35714 35.7645 7.83453C35.7543 8.31191 35.5551 8.76575 35.2107 9.09643L22.7585 21.0489L20.6664 21.0026C20.6316 21.0019 20.5984 20.9876 20.5741 20.9627C20.5497 20.9378 20.536 20.9044 20.536 20.8696V18.6611L32.7458 6.51868C33.059 6.20733 33.4775 6.02472 33.9188 6.0069C34.3601 5.98909 34.792 6.13735 35.1293 6.42243L35.2649 6.55018Z" fill="#93D500"/>
<path d="M31.6784 6.35156L35.5617 10.2593L33.6997 12.1091L29.8164 8.20219L31.6784 6.35156Z" fill="#93D500"/>
</svg>
