<svg width="152" height="92" viewBox="0 0 152 92" fill="none" xmlns="http://www.w3.org/2000/svg">
<rect x="11.0977" width="140.667" height="84.6545" rx="10" transform="rotate(2.8675 11.0977 0)" fill="#D3D3D3"/>
<rect x="1" y="4.16943" width="146.076" height="87.7333" rx="10" transform="rotate(-1.33774 1 4.16943)" fill="#93D500"/>
<line x1="0.987923" y1="40.028" x2="147.987" y2="36.4765" stroke="white"/>
<path d="M30.1831 24.4056L32.7899 37.1369L28.1436 37.2602L26.9187 31.2146L25.9603 37.3182L21.314 37.4415L23.2136 24.5906L21.0024 24.6493L20.9526 22.774L23.3597 22.7101L23.1985 16.6362L21.3511 16.6852L21.3013 14.8099L23.1487 14.7609L23.0424 10.7583L29.3962 10.5896L29.5025 14.5922L31.3498 14.5431L31.3996 16.4185L29.5522 16.4675L29.7135 22.5414L32.1486 22.4767L32.1984 24.3521L30.1831 24.4056ZM37.4702 27.7413L33.8595 27.8372L33.4159 11.1271L45.1997 10.8142C45.6662 10.8019 46.0721 10.9685 46.4174 11.3141C46.7809 11.6406 46.969 12.0464 46.9819 12.5316L47.3787 27.4783L43.768 27.5741L43.3913 13.3831C43.3809 12.9913 43.1797 12.8006 42.7879 12.811L37.0779 12.9626L37.4702 27.7413ZM48.2165 34.7666L48.267 36.67L40.2338 36.8832L40.1647 34.2801L38.947 36.9454L33.237 37.097L38.0902 26.8286L37.7662 14.6249L42.8045 14.4911L43.1552 27.7025L42.8902 28.2697L45.0454 28.2125L45.2215 34.8461L48.2165 34.7666ZM74.9361 9.38056L75.6443 36.0552L69.0387 36.2305L68.9851 34.2152L70.5526 34.1736L69.8979 9.51431L74.9361 9.38056ZM54.2467 27.6881L49.9922 27.801L49.5434 10.895L63.1466 10.5338C63.6318 10.521 64.047 10.6873 64.3923 11.033C64.7371 11.3599 64.9159 11.766 64.9288 12.2512L65.3308 27.3938L61.1043 27.506L60.7216 13.0911C60.7112 12.6992 60.5101 12.5085 60.1182 12.5189L53.8484 12.6854L54.2467 27.6881ZM69.8283 30.1034L66.3855 30.1948L65.9337 13.1768L69.3765 13.0854L69.8283 30.1034ZM60.5188 27.6056L66.7435 36.2915L60.2218 36.4646L57.85 33.6426L55.7433 36.5835L49.1657 36.7581L54.8927 27.755L54.5249 13.8999L60.1509 13.7505L60.5188 27.6056ZM86.3175 17.1172L84.834 17.1566L85.3297 35.826L78.8359 35.9984L78.3403 17.329L76.8288 17.3691L76.7783 15.4658L78.2898 15.4257L78.13 9.4078L84.6237 9.2354L84.7835 15.2533L86.2669 15.2139L86.3175 17.1172ZM99.1132 12.7161C99.5797 12.7037 99.9856 12.8703 100.331 13.2159C100.694 13.5424 100.883 13.9482 100.895 14.4334L101.453 35.454L94.7638 35.6316L94.7103 33.6163L95.9139 33.5843L95.4294 15.3348C95.419 14.9429 95.2178 14.7522 94.826 14.7626L94.798 14.7633L93.9241 35.6539L88.2701 35.804L89.032 14.9164L86.8768 14.9736L86.8255 13.0423L89.0927 12.9821L89.2421 9.11279L95.036 8.95897L94.8867 12.8283L99.1132 12.7161ZM88.1951 29.8119L85.8159 29.875L86.1196 18.1028L88.5547 18.0382L88.1951 29.8119ZM103.725 17.6354L104.037 29.3913L101.91 29.4477L101.598 17.6919L103.725 17.6354ZM107.348 13.7859L106.79 8.59088L112.193 8.44746L112.695 13.644L107.348 13.7859ZM121.97 18.0193L121.093 8.21115L123.612 8.14427L124.489 17.9525L121.97 18.0193ZM125.747 34.753L123.287 31.7372L120.933 34.8808L114.355 35.0554L119.812 27.4599L115.527 22.1958L115.189 9.4883L120.031 9.35974L120.291 19.1283L123.161 22.7774L125.889 18.9797L125.63 9.21112L130.332 9.08628L130.669 21.7938L126.666 27.1659L132.521 34.5732L125.747 34.753ZM115.179 33.381L107.135 35.2751L106.747 33.3247L107.944 33.0409L107.534 17.6183C107.524 17.2265 107.323 17.0357 106.931 17.0461L105.251 17.0907L105.199 15.1034L111.832 14.9273C112.318 14.9144 112.733 15.0808 113.078 15.4264C113.423 15.7534 113.602 16.1594 113.615 16.6446L114.013 31.6473L115.127 31.3937L115.179 33.381Z" fill="white"/>
<path d="M125.211 79.8112L129.065 79.7034L129.109 81.2548L125.254 81.3626L125.211 79.8112ZM128.691 80.9223L128.667 80.0587L125.628 80.1436L125.652 81.0073L128.691 80.9223ZM129.87 81.8578L129.931 84.0409L129.507 84.0528L129.498 83.7169L125.003 83.8426L125.013 84.1784L124.589 84.1903L124.528 82.0071L129.87 81.8578ZM124.993 83.4667L129.487 83.341L129.457 82.2535L124.962 82.3791L124.993 83.4667ZM123.642 77.5021L125.489 77.4505L125.473 76.8747L125.905 76.8626L125.921 77.4384L128.192 77.3749L128.176 76.7991L128.608 76.7871L128.624 77.3628L130.471 77.3112L130.482 77.703L128.635 77.7547L128.649 78.2745L128.217 78.2866L128.203 77.7668L125.932 77.8303L125.946 78.3501L125.514 78.3621L125.5 77.8423L123.653 77.894L123.642 77.5021ZM130.252 78.6218L130.292 80.0533L129.868 80.0651L129.838 79.0175L124.369 79.1705L124.399 80.258L123.975 80.2699L123.934 78.7985L130.252 78.6218ZM134.197 80.8965L134.185 80.4806L136.112 80.4268L136.086 79.4831L136.51 79.4713L136.536 80.4149L138.519 80.3595L138.531 80.7753L137.004 80.818C137.377 81.5972 137.999 82.2761 138.869 82.8547L138.599 83.2143C137.678 82.5092 137.029 81.7136 136.652 80.8278L136.548 80.8307L136.631 83.8216L136.208 83.8334L136.124 80.8426L136.028 80.8453C135.656 81.8641 135.002 82.712 134.066 83.3891L133.824 83.0197C134.699 82.451 135.319 81.7294 135.684 80.8549L134.197 80.8965ZM131.84 83.9075L131.732 83.4944C132.031 83.5073 132.248 83.512 132.381 83.5082C132.61 83.5018 132.721 83.376 132.715 83.1308L132.655 80.9956C132.333 81.122 131.974 81.2521 131.577 81.3859L131.453 80.9572C131.866 80.8496 132.263 80.7184 132.643 80.5638L132.59 78.6685L131.55 78.6976L131.538 78.2737L132.578 78.2447L132.535 76.6933L132.966 76.6812L133.01 78.2326L133.737 78.2123L133.749 78.6361L133.022 78.6564L133.07 80.3758C133.317 80.2621 133.575 80.1295 133.843 79.978L133.855 80.4178C133.55 80.5811 133.292 80.711 133.082 80.8076L133.149 83.2307C133.161 83.6572 132.959 83.8762 132.544 83.8878L131.84 83.9075ZM138.349 76.8588L138.39 78.2983L137.974 78.3099L137.945 77.2783L134.594 77.372L134.624 78.4196L134.208 78.4312L134.167 76.9758L138.349 76.8588ZM135.888 78.1281C135.572 78.8412 135.139 79.3896 134.589 79.7731L134.27 79.5099C134.825 79.1209 135.24 78.6184 135.516 78.0025L135.888 78.1281ZM136.874 77.8925C137.472 78.4733 137.923 78.9756 138.228 79.3992L137.883 79.649C137.566 79.1883 137.122 78.6725 136.551 78.1016L136.874 77.8925Z" fill="white"/>
<path d="M11.4917 75.5144L13.3026 75.4498C13.7303 75.4345 14.0657 75.5227 14.3086 75.7141C14.5599 75.9133 14.6922 76.2008 14.7056 76.5765C14.7143 76.8204 14.6541 77.0407 14.525 77.2374C14.388 77.4344 14.1906 77.5675 13.9329 77.6367L13.9333 77.6487C14.3685 77.7293 14.6177 77.9846 14.6811 78.4146L14.7639 79.054C14.7974 79.321 14.8749 79.5284 14.9962 79.6761L14.5945 79.6905C14.5016 79.5537 14.4387 79.3618 14.4059 79.1148L14.3309 78.5291C14.2975 78.2661 14.1928 78.0797 14.0168 77.9699C13.8571 77.8676 13.6373 77.8214 13.3575 77.8314L11.9424 77.8818L12.0101 79.7826L11.6444 79.7956L11.4917 75.5144ZM11.869 75.8251L11.9308 77.558L13.3399 77.5078C13.6717 77.4959 13.9286 77.4047 14.1107 77.2341C14.273 77.0723 14.3495 76.8614 14.3403 76.6016C14.3302 76.3177 14.2406 76.1068 14.0716 75.9687C13.9024 75.8267 13.6359 75.7621 13.2721 75.7751L11.869 75.8251ZM15.4616 76.5556L15.8214 76.5428L15.8889 78.4375C15.9004 78.7613 15.977 79.0008 16.1186 79.1558C16.2685 79.3186 16.4934 79.3946 16.7932 79.3839C17.029 79.3755 17.2356 79.2761 17.413 79.0857C17.5864 78.8994 17.6799 78.6579 17.6933 78.3612L17.6262 76.4784L17.986 76.4656L18.0965 79.5656L17.7367 79.5784L17.7181 79.0568C17.4927 79.4691 17.1561 79.6832 16.7084 79.6992C15.9528 79.7261 15.56 79.3158 15.5298 78.4684L15.4616 76.5556ZM18.8096 75.1694L19.1693 75.1566L19.325 79.5218L18.9652 79.5346L18.8096 75.1694ZM21.3319 76.2623C21.8236 76.2447 22.1973 76.3975 22.4529 76.7206C22.6834 77.0086 22.816 77.4181 22.851 77.9492L20.3326 78.039C20.3661 78.418 20.4786 78.7122 20.6702 78.9215C20.8698 79.1305 21.1295 79.2293 21.4493 79.2179C21.7251 79.2081 21.9503 79.126 22.1249 78.9717C22.2644 78.8427 22.3679 78.6569 22.4353 78.4143L22.801 78.4013C22.7398 78.7036 22.6106 78.9544 22.4136 79.1535C22.1699 79.3904 21.8521 79.5158 21.4604 79.5297C21.0247 79.5453 20.6716 79.4098 20.4012 79.1232C20.1229 78.837 19.9748 78.444 19.957 77.9443C19.9407 77.4886 20.055 77.1023 20.2999 76.7854C20.5522 76.4522 20.8962 76.2778 21.3319 76.2623ZM21.349 76.5738C21.0412 76.5848 20.7991 76.6995 20.6228 76.9179C20.4425 77.1365 20.3442 77.4122 20.3281 77.745L22.4627 77.6689C22.3758 76.9155 22.0046 76.5505 21.349 76.5738ZM13.189 84.5576C13.6287 84.5419 13.9824 84.6954 14.2501 85.0181C14.4886 85.3098 14.6162 85.6875 14.6327 86.1512C14.6488 86.6029 14.5503 86.9847 14.3373 87.2965C14.0931 87.6334 13.7532 87.8096 13.3175 87.8251C12.8218 87.8428 12.4513 87.6118 12.2061 87.1323L12.2715 88.9671L11.9117 88.9799L11.7589 84.6927L12.1007 84.6805L12.1225 85.2921C12.3338 84.8203 12.6893 84.5754 13.189 84.5576ZM13.1579 84.8649C12.8221 84.8769 12.565 85.0181 12.3865 85.2887C12.2229 85.5267 12.1479 85.8355 12.1614 86.2153L12.1637 86.2812C12.1771 86.657 12.28 86.9595 12.4723 87.1888C12.6687 87.422 12.9248 87.5329 13.2406 87.5217C13.5884 87.5093 13.8557 87.3717 14.0424 87.1088C14.2019 86.867 14.2747 86.5522 14.2609 86.1645C14.2471 85.7767 14.154 85.4678 13.9817 85.2378C13.7803 84.9768 13.5057 84.8525 13.1579 84.8649ZM16.5119 84.4392C16.7038 84.4323 16.8545 84.449 16.964 84.4891L16.977 84.8549C16.8275 84.8162 16.6689 84.7998 16.501 84.8058C16.2171 84.8159 15.9977 84.9478 15.8426 85.2015C15.6867 85.4312 15.6144 85.7039 15.6257 86.0197L15.684 87.6567L15.3242 87.6695L15.2137 84.5695L15.5735 84.5567L15.5947 85.1503C15.6716 84.9514 15.7801 84.7935 15.92 84.6764C16.0828 84.5265 16.2801 84.4474 16.5119 84.4392ZM18.7266 84.3602C19.1823 84.344 19.5539 84.4948 19.8414 84.8128C20.1041 85.1076 20.2436 85.4849 20.26 85.9446C20.2761 86.3963 20.1638 86.7805 19.9229 87.0973C19.6548 87.4351 19.2948 87.612 18.8431 87.6281C18.3914 87.6442 18.0198 87.4934 17.7283 87.1756C17.4655 86.8767 17.326 86.5015 17.3099 86.0498C17.2935 85.59 17.4078 85.2037 17.6528 84.8908C17.909 84.5535 18.2669 84.3766 18.7266 84.3602ZM18.7377 84.672C18.382 84.6847 18.109 84.8305 17.9188 85.1095C17.7433 85.3519 17.6623 85.661 17.6757 86.0367C17.6889 86.4085 17.7917 86.709 17.984 86.9383C18.1976 87.2029 18.4802 87.3289 18.832 87.3163C19.1878 87.3036 19.4628 87.1578 19.6569 86.8787C19.8318 86.6203 19.9129 86.3132 19.9003 85.9574C19.8872 85.5896 19.7843 85.2871 19.5917 85.0498C19.3822 84.7851 19.0975 84.6592 18.7377 84.672ZM21.5548 83.3408L21.5905 84.3422L22.4 84.3133L22.4111 84.6251L21.6017 84.654L21.6765 86.7526C21.6813 86.8885 21.7088 86.9856 21.7589 87.0439C21.8089 87.0981 21.8998 87.1229 22.0317 87.1182L22.4215 87.1043L22.4326 87.4161L21.9949 87.4317C21.755 87.4403 21.5809 87.3844 21.4726 87.2642C21.3769 87.1636 21.325 86.9973 21.3167 86.7655L21.2419 84.6668L20.5823 84.6903L20.5712 84.3785L21.2308 84.355L21.2004 83.5035L21.5548 83.3408ZM24.2953 84.1617C24.7511 84.1454 25.1227 84.2963 25.4102 84.6143C25.6728 84.9091 25.8124 85.2864 25.8288 85.7461C25.8449 86.1978 25.7325 86.582 25.4916 86.8988C25.2235 87.2366 24.8636 87.4135 24.4118 87.4296C23.9601 87.4457 23.5885 87.2949 23.297 86.977C23.0342 86.6782 22.8947 86.3029 22.8786 85.8512C22.8622 85.3915 22.9766 85.0052 23.2216 84.6923C23.4777 84.3549 23.8356 84.1781 24.2953 84.1617ZM24.3065 84.4735C23.9507 84.4862 23.6777 84.632 23.4875 84.9109C23.312 85.1533 23.231 85.4624 23.2444 85.8382C23.2577 86.21 23.3604 86.5105 23.5527 86.7398C23.7663 87.0043 24.049 87.1304 24.4007 87.1178C24.7565 87.1051 25.0315 86.9592 25.2257 86.6801C25.4006 86.4217 25.4817 86.1147 25.469 85.7589C25.4559 85.3911 25.353 85.0886 25.1605 84.8513C24.9509 84.5866 24.6662 84.4607 24.3065 84.4735ZM27.7139 84.0398C28.0857 84.0266 28.3907 84.1057 28.629 84.2774C28.8712 84.4488 29.023 84.7196 29.0842 85.0897L28.7244 85.1025C28.6752 84.8441 28.5643 84.6519 28.3917 84.526C28.2191 84.4 27.9969 84.3419 27.725 84.3516C27.3972 84.3633 27.1419 84.4985 26.959 84.7572C26.7795 84.9997 26.6971 85.3249 26.7116 85.7326C26.7257 86.1283 26.8269 86.4409 27.0152 86.6704C27.2035 86.8998 27.4695 87.0084 27.8133 86.9962C28.3889 86.9756 28.7103 86.67 28.7773 86.0792L29.131 86.0666C29.085 86.4605 28.9477 86.7636 28.7192 86.9759C28.4944 87.184 28.1962 87.2947 27.8244 87.308C27.3647 87.3243 27.0034 87.1811 26.7404 86.8783C26.4945 86.6029 26.3629 86.2253 26.3458 85.7456C26.329 85.2739 26.4371 84.8818 26.6701 84.5693C26.9143 84.2324 27.2622 84.0559 27.7139 84.0398ZM30.9884 83.9231C31.4441 83.9068 31.8157 84.0577 32.1032 84.3757C32.3659 84.6705 32.5054 85.0478 32.5218 85.5075C32.5379 85.9592 32.4255 86.3434 32.1846 86.6602C31.9165 86.998 31.5566 87.1749 31.1049 87.191C30.6531 87.2071 30.2815 87.0563 29.99 86.7384C29.7272 86.4396 29.5878 86.0643 29.5717 85.6126C29.5553 85.1529 29.6696 84.7666 29.9146 84.4537C30.1707 84.1163 30.5286 83.9395 30.9884 83.9231ZM30.9995 84.2349C30.6437 84.2476 30.3707 84.3934 30.1805 84.6723C30.0051 84.9147 29.924 85.2238 29.9374 85.5996C29.9507 85.9714 30.0534 86.2719 30.2457 86.5012C30.4593 86.7657 30.742 86.8917 31.0937 86.8792C31.4495 86.8665 31.7245 86.7206 31.9187 86.4415C32.0936 86.1831 32.1747 85.8761 32.162 85.5203C32.1489 85.1525 32.0461 84.85 31.8535 84.6127C31.6439 84.348 31.3592 84.2221 30.9995 84.2349ZM33.1716 82.6625L33.5314 82.6497L33.687 87.0149L33.3272 87.0277L33.1716 82.6625Z" fill="white"/>
</svg>
