<svg width="24" height="24" viewBox="0 0 24 24" fill="none" xmlns="http://www.w3.org/2000/svg">
<path fill-rule="evenodd" clip-rule="evenodd" d="M6.75142 5.34306C6.36089 4.95254 5.72773 4.95254 5.3372 5.34306C4.94668 5.73359 4.94668 6.36675 5.3372 6.75728L7.45852 8.8786C7.84905 9.26912 8.48221 9.26912 8.87274 8.8786C9.26326 8.48807 9.26326 7.85491 8.87274 7.46438L6.75142 5.34306ZM11.7012 10.2928C11.3106 9.90229 10.6775 9.90229 10.287 10.2928C9.89643 10.6833 9.89643 11.3165 10.287 11.707L19.4793 20.8994C19.8699 21.2899 20.503 21.2899 20.8936 20.8994C21.2841 20.5089 21.2841 19.8757 20.8936 19.4852L11.7012 10.2928ZM16.6509 5.34306C17.0414 5.73359 17.0414 6.36675 16.6509 6.75728L14.5296 8.8786C14.1391 9.26912 13.5059 9.26912 13.1154 8.8786C12.7249 8.48807 12.7249 7.85491 13.1154 7.46438L15.2367 5.34306C15.6272 4.95254 16.2604 4.95254 16.6509 5.34306ZM8.87274 14.5355C9.26326 14.1449 9.26326 13.5118 8.87274 13.1212C8.48221 12.7307 7.84905 12.7307 7.45852 13.1212L5.3372 15.2426C4.94668 15.6331 4.94668 16.2662 5.3372 16.6568C5.72773 17.0473 6.36089 17.0473 6.75142 16.6568L8.87274 14.5355ZM18.994 10.9999C18.994 11.5522 18.5463 11.9999 17.994 11.9999H14.994C14.4417 11.9999 13.994 11.5522 13.994 10.9999C13.994 10.4476 14.4417 9.99992 14.994 9.99992L17.994 9.99992C18.5463 9.99992 18.994 10.4476 18.994 10.9999ZM6.99414 11.9999C7.54642 11.9999 7.99414 11.5522 7.99414 10.9999C7.99414 10.4476 7.54643 9.99992 6.99414 9.99992L3.99414 9.99992C3.44186 9.99992 2.99414 10.4476 2.99414 10.9999C2.99414 11.5522 3.44186 11.9999 3.99414 11.9999H6.99414ZM10.9941 18.9999C10.4418 18.9999 9.99406 18.5521 9.99406 17.9999L9.99406 14.9999C9.99406 14.4476 10.4418 13.9999 10.9941 13.9999C11.5463 13.9999 11.9941 14.4476 11.9941 14.9999L11.9941 17.9999C11.9941 18.5521 11.5463 18.9999 10.9941 18.9999ZM9.99406 7C9.99406 7.55228 10.4418 8 10.9941 8C11.5463 8 11.9941 7.55228 11.9941 7V4C11.9941 3.44772 11.5463 3 10.9941 3C10.4418 3 9.99406 3.44772 9.99406 4L9.99406 7Z" fill="#262626"/>
</svg>
