<svg width="16" height="16" viewBox="0 0 16 16" fill="none" xmlns="http://www.w3.org/2000/svg">
<path d="M7.9987 14.6654C4.31686 14.6654 1.33203 11.6805 1.33203 7.9987C1.33203 4.31686 4.31686 1.33203 7.9987 1.33203C11.6805 1.33203 14.6654 4.31686 14.6654 7.9987C14.6654 11.6805 11.6805 14.6654 7.9987 14.6654ZM7.9987 13.6654C11.1284 13.6654 13.6654 11.1284 13.6654 7.9987C13.6654 4.86903 11.1284 2.33203 7.9987 2.33203C4.86903 2.33203 2.33203 4.86903 2.33203 7.9987C2.33203 11.1284 4.86903 13.6654 7.9987 13.6654ZM5.4987 7.4987H10.4987C10.6313 7.4987 10.7585 7.55138 10.8523 7.64514C10.946 7.73891 10.9987 7.86609 10.9987 7.9987C10.9987 8.13131 10.946 8.25848 10.8523 8.35225C10.7585 8.44602 10.6313 8.4987 10.4987 8.4987H5.4987C5.36609 8.4987 5.23891 8.44602 5.14514 8.35225C5.05138 8.25848 4.9987 8.13131 4.9987 7.9987C4.9987 7.86609 5.05138 7.73891 5.14514 7.64514C5.23891 7.55138 5.36609 7.4987 5.4987 7.4987Z" fill="#8A8A8A"/>
</svg>
