<svg width="19" height="19" viewBox="0 0 19 19" fill="none" xmlns="http://www.w3.org/2000/svg">
<path fill-rule="evenodd" clip-rule="evenodd" d="M3.75142 2.34306C3.36089 1.95254 2.72773 1.95254 2.3372 2.34306C1.94668 2.73359 1.94668 3.36675 2.3372 3.75728L4.45852 5.8786C4.84905 6.26912 5.48221 6.26912 5.87274 5.8786C6.26326 5.48807 6.26326 4.85491 5.87274 4.46438L3.75142 2.34306ZM8.70117 7.29281C8.31064 6.90229 7.67748 6.90229 7.28695 7.29281C6.89643 7.68334 6.89643 8.3165 7.28695 8.70702L16.4793 17.8994C16.8699 18.2899 17.503 18.2899 17.8936 17.8994C18.2841 17.5089 18.2841 16.8757 17.8936 16.4852L8.70117 7.29281ZM13.6509 2.34306C14.0414 2.73359 14.0414 3.36675 13.6509 3.75728L11.5296 5.8786C11.1391 6.26912 10.5059 6.26912 10.1154 5.8786C9.72485 5.48807 9.72485 4.85491 10.1154 4.46438L12.2367 2.34306C12.6272 1.95254 13.2604 1.95254 13.6509 2.34306ZM5.87274 11.5355C6.26326 11.1449 6.26326 10.5118 5.87274 10.1212C5.48221 9.73071 4.84905 9.73071 4.45852 10.1212L2.3372 12.2426C1.94668 12.6331 1.94668 13.2662 2.3372 13.6568C2.72773 14.0473 3.36089 14.0473 3.75142 13.6568L5.87274 11.5355ZM15.994 7.99992C15.994 8.5522 15.5463 8.99992 14.994 8.99992H11.994C11.4417 8.99992 10.994 8.5522 10.994 7.99992C10.994 7.44763 11.4417 6.99992 11.994 6.99992L14.994 6.99992C15.5463 6.99992 15.994 7.44763 15.994 7.99992ZM3.99414 8.99992C4.54642 8.99992 4.99414 8.5522 4.99414 7.99992C4.99414 7.44763 4.54643 6.99992 3.99414 6.99992L0.994141 6.99992C0.441856 6.99992 -0.00585929 7.44763 -0.00585938 7.99992C-0.00585938 8.5522 0.441856 8.99992 0.994141 8.99992H3.99414ZM7.99406 15.9999C7.44177 15.9999 6.99406 15.5521 6.99406 14.9999L6.99406 11.9999C6.99406 11.4476 7.44177 10.9999 7.99406 10.9999C8.54634 10.9999 8.99406 11.4476 8.99406 11.9999L8.99406 14.9999C8.99406 15.5521 8.54634 15.9999 7.99406 15.9999ZM6.99406 4C6.99406 4.55228 7.44177 5 7.99406 5C8.54634 5 8.99406 4.55228 8.99406 4V1C8.99406 0.447716 8.54634 -3.37174e-07 7.99406 0C7.44177 -3.37174e-07 6.99406 0.447715 6.99406 1L6.99406 4Z" fill="#93D600"/>
</svg>
