<svg width="20" height="20" viewBox="0 0 20 20" fill="none" xmlns="http://www.w3.org/2000/svg">
<path fill-rule="evenodd" clip-rule="evenodd" d="M4.74867 6.8759C5.33446 7.46168 6.2842 7.46168 6.86999 6.8759C7.45578 6.29011 7.45578 5.34036 6.86999 4.75458L5.10498 2.98957C4.51919 2.40378 3.56945 2.40378 2.98366 2.98957C2.39787 3.57535 2.39787 4.5251 2.98366 5.11089L4.74867 6.8759ZM5.99024 8.99992C5.99024 9.82835 5.31867 10.4999 4.49024 10.4999L1.99414 10.4999C1.16571 10.4999 0.494141 9.82834 0.494141 8.99992C0.494141 8.17149 1.16571 7.49992 1.99414 7.49992L4.49024 7.49992C5.31867 7.49992 5.99024 8.17149 5.99024 8.99992ZM10.7618 8.64636C10.176 8.06058 9.22629 8.06058 8.6405 8.64636C8.05472 9.23215 8.05472 10.1819 8.6405 10.7677L17.1258 19.253C17.7116 19.8388 18.6613 19.8388 19.2471 19.253C19.8329 18.6672 19.8329 17.7174 19.2471 17.1316L10.7618 8.64636ZM15.994 10.4999C16.8224 10.4999 17.494 9.82835 17.494 8.99992C17.494 8.17149 16.8224 7.49992 15.994 7.49992L13.4902 7.49992C12.6618 7.49992 11.9902 8.17149 11.9902 8.99992C11.9902 9.82834 12.6618 10.4999 13.4902 10.4999L15.994 10.4999ZM7.49406 15.9999C7.49406 16.8283 8.16563 17.4999 8.99406 17.4999C9.82248 17.4999 10.4941 16.8283 10.4941 15.9999L10.4941 13.4999C10.4941 12.6714 9.82249 11.9999 8.99406 11.9999C8.16563 11.9999 7.49406 12.6714 7.49406 13.4999L7.49406 15.9999ZM8.99406 5.99988C8.16563 5.99988 7.49406 5.3283 7.49406 4.49988L7.49406 2C7.49406 1.17157 8.16563 0.5 8.99406 0.5C9.82249 0.500001 10.4941 1.17157 10.4941 2V4.49988C10.4941 5.32831 9.82248 5.99988 8.99406 5.99988ZM2.98378 15.0102C2.39799 14.4244 2.39799 13.4746 2.98378 12.8889L4.75155 11.1211C5.33733 10.5353 6.28708 10.5353 6.87287 11.1211C7.45865 11.7069 7.45865 12.6566 6.87287 13.2424L5.1051 15.0102C4.51931 15.596 3.56956 15.596 2.98378 15.0102ZM11.1154 4.75726C10.5296 5.34305 10.5296 6.2928 11.1154 6.87858C11.7012 7.46437 12.6509 7.46437 13.2367 6.87858L15.0044 5.1109C15.5902 4.52512 15.5902 3.57537 15.0044 2.98958C14.4186 2.4038 13.4688 2.4038 12.8831 2.98958L11.1154 4.75726Z" fill="#93D600"/>
</svg>
