<svg width="9" height="8" viewBox="0 0 9 8" fill="none" xmlns="http://www.w3.org/2000/svg">
<path d="M1.364 1.25602V4.37202C1.364 4.71902 1.648 5.00002 2.001 5.00002C2.354 5.00002 2.638 4.72002 2.638 4.37202V1.25602H3.363C3.715 1.25602 4 0.97602 4 0.62802C3.99948 0.544939 3.98258 0.462777 3.95027 0.386234C3.91796 0.309691 3.87088 0.240269 3.81171 0.18194C3.75255 0.123612 3.68246 0.077521 3.60547 0.0463052C3.52847 0.0150893 3.44608 -0.000639064 3.363 1.98797e-05H0.637C0.55392 -0.000639064 0.471526 0.0150893 0.394531 0.0463052C0.317536 0.077521 0.247451 0.123612 0.188287 0.18194C0.129122 0.240269 0.0820388 0.309691 0.0497306 0.386234C0.0174223 0.462777 0.000523223 0.544939 0 0.62802C0 0.97602 0.285 1.25602 0.637 1.25602H1.364ZM4.652 4.00002C4.292 4.00002 4 4.22302 4 4.50002C4 4.77702 4.291 5.00002 4.652 5.00002H7.348C7.708 5.00002 8 4.77702 8 4.50002C8 4.22302 7.709 4.00002 7.348 4.00002H4.652ZM4.652 2.00002C4.292 2.00002 4 2.22302 4 2.50002C4 2.77702 4.291 3.00002 4.652 3.00002H7.348C7.708 3.00002 8 2.77702 8 2.50002C8 2.22302 7.709 2.00002 7.348 2.00002H4.652ZM0.648 6.51502C0.301 6.51502 0.02 6.76102 0.02 7.06502C0.02 7.36902 0.3 7.61502 0.648 7.61502H7.393C7.74 7.61502 8.02 7.36902 8.02 7.06502C8.02 6.76102 7.738 6.51502 7.391 6.51502H0.648Z" fill="#8A8A8A"/>
</svg>
